<?xml version="1.0" encoding="UTF-8" standalone="no"?>
<svg width="280px" height="280px" viewBox="0 0 280 280" version="1.1" xmlns="http://www.w3.org/2000/svg" xmlns:xlink="http://www.w3.org/1999/xlink" xmlns:sketch="http://www.bohemiancoding.com/sketch/ns">
    <!-- Generator: Sketch 3.0.4 (8053) - http://www.bohemiancoding.com/sketch -->
    <title>Untitled 2</title>
    <desc>Created with Sketch.</desc>
    <defs></defs>
    <g id="Page-1" stroke="none" stroke-width="1" fill="none" fill-rule="evenodd" sketch:type="MSPage">
        <g id="add" sketch:type="MSLayerGroup" fill="#F4D03F">
            <g id="Page-1" sketch:type="MSShapeGroup">
                <g id="icon_19460">
                    <g id="Page-1">
                        <path d="M140,280 C62.6801311,280 0,217.319869 0,140 C0,62.6801311 62.6801311,0 140,0 C217.319869,0 280,62.6801311 280,140 C280,217.319869 217.319869,280 140,280 L140,280 L140,280 Z M114.421875,145.6875 L133.640625,145.6875 L133.640625,165 L145.96875,165 L145.96875,145.6875 L165.1875,145.6875 L165.1875,133.453125 L145.96875,133.453125 L145.96875,114.234375 L133.640625,114.234375 L133.640625,133.453125 L114.421875,133.453125 L114.421875,145.6875 L114.421875,145.6875 Z" id="Oval-1"></path>
                    </g>
                </g>
            </g>
        </g>
    </g>
</svg>