<?xml version="1.0" encoding="UTF-8" standalone="no"?>
<svg width="71px" height="100px" viewBox="0 0 71 100" version="1.1" xmlns="http://www.w3.org/2000/svg" xmlns:xlink="http://www.w3.org/1999/xlink" xmlns:sketch="http://www.bohemiancoding.com/sketch/ns">
    <!-- Generator: Sketch 3.0.4 (8053) - http://www.bohemiancoding.com/sketch -->
    <title>Untitled 2</title>
    <desc>Created with Sketch.</desc>
    <defs></defs>
    <g id="Page-1" stroke="none" stroke-width="1" fill="none" fill-rule="evenodd" sketch:type="MSPage">
        <g id="icon_22696" sketch:type="MSLayerGroup" transform="translate(1.000000, 0.000000)" fill="#FFFFFF">
            <path d="M41.907,25.164 C41.957,25.183 42.008,25.196 42.058,25.214 C43.08,25.561 44.166,25.643 45.322,25.461 C46.395,25.297 47.317,24.962 48.081,24.457 C49.57,23.472 50.556,22.001 51.042,20.051 C51.212,19.375 51.281,18.624 51.263,17.803 C51.117,17.317 50.966,16.818 50.808,16.313 C50.512,15.379 50.082,14.564 49.521,13.87 C48.41,12.494 46.717,11.73 44.439,11.584 C43.346,11.515 42.412,11.641 41.648,11.957 C39.88,12.683 38.586,13.901 37.772,15.606 C37.375,16.433 37.191,17.462 37.216,18.687 C37.241,19.861 37.469,20.871 37.892,21.711 C38.719,23.359 40.058,24.514 41.907,25.164 L41.907,25.164 Z" id="Shape" sketch:type="MSShapeGroup"></path>
            <path d="M70,0 L62.247,0 L62.247,39.394 L55.305,39.394 L55.177,39.394 C55.092,39.32 55.009,39.248 54.927,39.173 C54.351,38.643 53.828,38.052 53.369,37.401 C52.883,36.713 52.382,36.051 51.858,35.407 C51.574,35.053 51.283,34.702 50.986,34.361 C49.838,33.03 48.738,31.65 47.69,30.205 C47.69,30.204 47.691,30.201 47.69,30.199 C47.561,30.021 47.423,29.85 47.284,29.682 C46.301,28.498 45.067,27.559 43.582,26.863 C43.476,26.813 43.362,26.767 43.251,26.723 C43.027,26.635 42.797,26.556 42.553,26.491 C42.432,26.459 42.303,26.431 42.176,26.404 C41.921,26.35 41.659,26.307 41.385,26.276 C41.111,26.245 40.826,26.226 40.531,26.218 C38.051,26.161 35.561,26.136 33.081,26.136 C30.6,26.136 28.11,26.115 25.63,26.084 C24.02,26.065 22.51,26.15 21.103,26.346 L21.097,26.346 C20.581,26.416 20.106,26.547 19.684,26.729 C19.576,26.777 19.469,26.829 19.365,26.88 C19.156,26.984 18.954,27.092 18.761,27.211 C18.375,27.45 18.026,27.723 17.703,28.025 C17.702,28.026 17.698,28.024 17.697,28.025 C17.457,28.251 17.234,28.496 17.029,28.757 C16.891,28.932 16.76,29.113 16.639,29.303 C16.396,29.684 16.186,30.097 16.005,30.541 C15.986,30.591 15.961,30.641 15.936,30.692 C15.488,31.519 15.051,32.337 14.623,33.139 C14.427,33.512 14.231,33.873 14.036,34.22 C13.145,35.824 12.268,37.449 11.403,39.091 C11.276,39.331 11.166,39.581 11.071,39.846 C10.977,40.111 10.899,40.392 10.839,40.683 C10.77,41.043 10.755,41.415 10.793,41.787 C10.799,41.831 10.804,41.882 10.816,41.932 C10.885,42.179 10.94,42.424 10.984,42.676 C11.162,42.972 11.374,43.234 11.618,43.467 C11.781,43.622 11.961,43.763 12.152,43.891 C12.441,44.082 12.758,44.244 13.111,44.373 C13.118,44.376 13.126,44.385 13.129,44.396 C13.132,44.407 13.135,44.42 13.135,44.442 L14.775,44.442 L14.902,44.442 C15.021,44.403 15.134,44.361 15.246,44.314 C15.468,44.22 15.677,44.11 15.867,43.983 C15.963,43.92 16.054,43.852 16.14,43.779 C16.228,43.707 16.311,43.627 16.39,43.547 C16.549,43.386 16.694,43.213 16.82,43.018 C16.883,42.921 16.939,42.816 16.995,42.71 C17.835,41.094 18.673,39.475 19.506,37.84 C20.194,36.489 20.892,35.154 21.593,33.835 L29.043,33.835 L29.171,33.835 C28.439,35.584 27.722,37.355 27.021,39.142 C26.321,40.929 25.634,42.698 24.947,44.466 C24.578,45.413 24.187,46.331 23.778,47.22 C23.778,47.222 23.779,47.225 23.778,47.226 C23.642,47.522 23.5,47.815 23.36,48.104 C23.317,48.739 23.274,49.371 23.226,49.999 L23.22,49.999 C23.094,51.672 22.949,53.313 22.79,54.929 C22.557,57.221 22.342,59.493 22.14,61.747 C21.989,63.389 21.806,64.986 21.591,66.539 C21.105,66.684 20.518,66.754 19.823,66.741 C17.342,66.69 14.854,66.665 12.374,66.665 C10.31,66.665 8.251,66.703 6.193,66.785 C6.098,66.785 5.972,66.798 5.808,66.816 C5.252,66.874 4.759,67.019 4.336,67.253 C2.739,68.111 1.647,69.507 1.066,71.444 C0.915,71.93 0.762,72.41 0.605,72.883 C0.434,73.395 0.232,73.843 -0.001,74.24 C0.485,74.386 1.072,74.455 1.767,74.442 C4.248,74.391 6.736,74.366 9.216,74.366 L16.666,74.366 C19.146,74.366 21.634,74.391 24.115,74.442 C25.283,74.461 26.293,74.34 27.133,74.076 C27.184,74.057 27.235,74.038 27.285,74.013 C28.111,73.572 28.674,72.852 28.957,71.855 C29.096,71.381 29.197,70.832 29.254,70.207 C29.463,67.991 29.684,65.757 29.91,63.509 C30.144,61.249 30.358,59.014 30.56,56.805 C30.618,56.16 30.744,55.617 30.933,55.176 C31.779,56.811 32.599,58.484 33.401,60.195 C34.177,61.875 34.961,63.541 35.75,65.202 C36.173,66.086 36.59,66.95 37.013,67.79 C37.815,69.388 38.598,70.991 39.367,72.613 C40.169,74.299 40.983,75.978 41.81,77.645 C42.624,79.305 43.414,80.991 44.177,82.707 C44.563,83.585 45.068,84.349 45.687,84.992 C46.589,85.939 48.029,86.382 49.999,86.324 C51.893,86.267 53.786,86.236 55.681,86.236 C54.905,84.531 54.103,82.845 53.276,81.185 C52.455,79.525 51.634,77.858 50.807,76.172 C50.056,74.632 49.298,73.079 48.522,71.507 C47.72,69.86 46.913,68.174 46.104,66.463 C45.322,64.802 44.539,63.13 43.755,61.456 C42.953,59.745 42.146,58.066 41.324,56.418 C40.498,54.752 39.683,53.072 38.887,51.387 C39.058,50.926 39.235,50.459 39.405,49.998 L39.408,49.998 C39.907,48.66 40.413,47.341 40.925,46.04 C41.638,44.228 42.375,42.467 43.139,40.763 C43.171,40.693 43.196,40.618 43.221,40.542 C43.505,39.747 43.825,38.984 44.192,38.258 C45.316,39.615 46.438,40.974 47.568,42.343 C48.13,43.031 48.688,43.734 49.231,44.447 C50.31,45.855 51.915,46.703 54.054,46.975 C54.679,47.057 55.3,47.091 55.932,47.091 C57.952,47.091 60.099,47.112 62.119,47.155 C62.163,47.155 62.203,47.175 62.247,47.218 C62.25,47.229 62.247,47.432 62.247,47.443 L62.247,99.997 L70,99.997" id="Shape" sketch:type="MSShapeGroup"></path>
        </g>
    </g>
</svg>